HIERARCHY
ROOT Hips
{
	OFFSET -0.001795 -0.223333 0.028219
	CHANNELS 6 Xposition Yposition Zposition Zrotation Yrotation Xrotation 
	JOINT LeftUpLeg
	{
		OFFSET 0.069520 -0.091406 -0.006815
		CHANNELS 3 Zrotation Yrotation Xrotation
		JOINT LeftLeg
		{
			OFFSET 0.034277 -0.375199 -0.004496
			CHANNELS 3 Zrotation Yrotation Xrotation
			JOINT LeftFoot
			{
				OFFSET -0.013596 -0.397961 -0.043693
				CHANNELS 3 Zrotation Yrotation Xrotation
				JOINT LeftToe
				{
					OFFSET 0.026358 -0.055791 0.119288
					CHANNELS 3 Zrotation Yrotation Xrotation
					End Site
					{
						OFFSET 0.000000 0.000000 0.000000
					}
				}
			}
		}
	}
	JOINT RightUpLeg
	{
		OFFSET -0.067670 -0.090522 -0.004320
		CHANNELS 3 Zrotation Yrotation Xrotation
		JOINT RightLeg
		{
			OFFSET -0.038290 -0.382569 -0.008850
			CHANNELS 3 Zrotation Yrotation Xrotation
			JOINT RightFoot
			{
				OFFSET 0.015774 -0.398415 -0.042312
				CHANNELS 3 Zrotation Yrotation Xrotation
				JOINT RightToe
				{
					OFFSET -0.025372 -0.048144 0.123348
					CHANNELS 3 Zrotation Yrotation Xrotation
					End Site
					{
						OFFSET 0.000000 0.000000 0.000000
					}
				}
			}
		}
	}
	JOINT Spine
	{
		OFFSET -0.002533 0.108963 -0.026696
		CHANNELS 3 Zrotation Yrotation Xrotation
		JOINT Spine1
		{
			OFFSET 0.005487 0.135180 0.001092
			CHANNELS 3 Zrotation Yrotation Xrotation
			JOINT Spine2
			{
				OFFSET 0.001457 0.052922 0.025425
				CHANNELS 3 Zrotation Yrotation Xrotation
				JOINT Neck
				{
					OFFSET -0.002778 0.213870 -0.042857
					CHANNELS 3 Zrotation Yrotation Xrotation
					JOINT Head
					{
						OFFSET 0.005152 0.064970 0.051349
						CHANNELS 3 Zrotation Yrotation Xrotation
						End Site
						{
							OFFSET 0.000000 0.000000 0.000000
						}
					}
				}
				JOINT LeftShoulder
				{
					OFFSET 0.078845 0.121749 -0.034090
					CHANNELS 3 Zrotation Yrotation Xrotation
					JOINT LeftArm
					{
						OFFSET 0.090977 0.030469 -0.008868
						CHANNELS 3 Zrotation Yrotation Xrotation
						JOINT LeftForeArm
						{
							OFFSET 0.259612 -0.012772 -0.027456
							CHANNELS 3 Zrotation Yrotation Xrotation
							JOINT LeftHand
							{
								OFFSET 0.249234 0.008986 -0.001171
								CHANNELS 3 Zrotation Yrotation Xrotation
								End Site
								{
									OFFSET 0.000000 0.000000 0.000000
								}
							}
						}
					}
				}
				JOINT RightShoulder
				{
					OFFSET -0.081759 0.118833 -0.038615
					CHANNELS 3 Zrotation Yrotation Xrotation
					JOINT RightArm
					{
						OFFSET -0.096012 0.032551 -0.009143
						CHANNELS 3 Zrotation Yrotation Xrotation
						JOINT RightForeArm
						{
							OFFSET -0.253742 -0.013329 -0.021401
							CHANNELS 3 Zrotation Yrotation Xrotation
							JOINT RightHand
							{
								OFFSET -0.255298 0.007772 -0.005559
								CHANNELS 3 Zrotation Yrotation Xrotation
								End Site
								{
									OFFSET 0.000000 0.000000 0.000000
								}
							}
						}
					}
				}
			}
		}
	}
}
MOTION
Frames: 11
Frame Time: 0.050000
0.000000 0.803774 0.000000 -2.214408 8.229720 -4.231894 2.079980 -0.729228 -9.218768 -10.479626 1.839831 49.773907 14.017826 33.836869 -29.938348 0.000000 0.000000 0.000000 -1.854427 2.363467 -44.344476 4.577321 -2.692666 53.177501 -7.673006 -18.647318 -21.101168 0.000000 0.000000 0.000000 6.966720 -2.211018 18.952309 -3.120495 1.698817 -15.103724 -3.650653 -4.178392 14.535498 2.130691 -1.484403 -4.483378 0.000000 0.000000 0.000000 -22.033791 -7.810290 2.457392 -44.828199 5.698149 -8.367569 -31.181124 -67.892297 24.859737 0.000000 0.000000 0.000000 20.145412 -1.904749 -2.176672 44.622922 -1.771823 -6.163702 20.546170 64.643964 16.491333 0.000000 0.000000 0.000000 
0.016541 0.810097 0.128276 -1.368980 6.636620 -6.510192 5.843615 0.010026 2.634653 -14.780653 4.688443 48.194980 12.648294 26.186410 -17.755796 0.000000 0.000000 0.000000 -1.666175 2.206468 -32.080014 3.934516 -2.381790 58.749705 -8.200468 -21.111451 -24.679624 0.000000 0.000000 0.000000 7.306865 -0.643052 6.783801 -4.510014 2.178389 -12.321901 -2.268241 -6.409991 14.833327 -2.131058 1.887738 -4.308582 0.000000 0.000000 0.000000 -17.528323 0.834943 -1.262028 -54.491290 17.409668 -15.490248 -36.378532 -58.607916 25.089656 0.000000 0.000000 0.000000 7.392804 -8.043394 -3.982519 49.329003 -19.641683 -13.556143 51.471590 58.136633 31.951132 0.000000 0.000000 0.000000 
0.029359 0.824493 0.267329 -0.604429 7.977109 -10.782045 9.940566 -0.359454 16.235290 -11.943059 2.764820 43.709945 9.817826 19.101023 -3.357548 0.000000 0.000000 0.000000 -1.975473 0.946635 -12.926210 3.619561 -2.399037 53.912465 -7.338990 -17.211662 -35.997639 0.000000 0.000000 0.000000 5.591180 0.492118 -3.899535 -2.215451 1.378035 -12.787231 -5.297436 -6.271179 19.034715 0.547833 -0.779409 1.469555 0.000000 0.000000 0.000000 -8.593234 7.314467 -3.633446 -54.714576 33.527013 -22.650020 -52.955724 -46.842050 27.577305 0.000000 0.000000 0.000000 -4.148962 -13.436585 -3.968158 57.808193 -29.086968 -20.640713 51.079254 45.940788 24.656391 0.000000 0.000000 0.000000 
0.034731 0.838323 0.382698 -0.430472 9.383347 -15.221895 12.381445 -1.036102 20.976901 -12.170428 2.584418 45.757651 14.283252 26.795742 6.738227 0.000000 0.000000 0.000000 0.820786 0.078778 -0.637778 0.821900 -1.050333 55.843205 -7.556612 -20.953148 -33.610244 0.000000 0.000000 0.000000 3.409339 0.673961 -8.599816 -3.454454 1.844832 -13.245231 -2.268591 -2.245888 20.356669 4.501636 -4.338406 1.445583 0.000000 0.000000 0.000000 1.432604 8.123599 -2.538330 -60.133720 35.016963 -26.958272 -52.667614 -34.831074 19.218297 0.000000 0.000000 0.000000 -10.904389 -19.820873 -5.136948 65.696967 -35.913810 -25.874743 53.757408 38.476259 22.383982 0.000000 0.000000 0.000000 
0.036554 0.854366 0.457959 -2.806608 14.360807 -24.094746 14.816798 -1.573299 18.145871 -12.247937 0.995516 50.898512 19.502851 37.989169 -9.686198 0.000000 0.000000 0.000000 4.532048 -0.801341 6.484996 0.455300 -4.071995 66.410531 -7.847279 -18.712873 3.367108 0.000000 0.000000 0.000000 -0.449281 0.085757 -4.163660 -1.867332 1.471622 -16.577964 -2.402648 -4.150446 23.129380 8.244862 -6.470724 -4.911259 0.000000 0.000000 0.000000 9.870708 7.319320 -0.781365 -69.277388 25.841557 -27.590302 -45.750794 -32.885094 15.843625 0.000000 0.000000 0.000000 -9.853217 -19.240740 -5.497432 71.805147 -28.218122 -23.695127 40.288209 41.972143 19.211736 0.000000 0.000000 0.000000 
0.037454 0.862237 0.506574 -2.475480 13.896909 -26.972903 8.697209 -0.075245 11.975638 -10.457091 0.284415 46.730740 15.232080 33.299872 -30.501313 0.000000 0.000000 0.000000 3.037359 0.411408 -1.844434 2.100993 -6.671173 77.004666 -5.078224 -12.686435 3.934201 0.000000 0.000000 0.000000 -0.866031 -0.029890 -1.596331 0.366923 0.632100 -12.871079 -4.082827 -1.481190 21.742350 6.604867 -5.772771 -0.638147 0.000000 0.000000 0.000000 8.117275 4.792201 -0.136685 -70.297971 15.236953 -22.076346 -36.656459 -35.908857 13.656809 0.000000 0.000000 0.000000 -4.975757 -14.558145 -4.844897 73.207011 -15.755350 -16.198917 26.609468 44.671367 14.788346 0.000000 0.000000 0.000000 
0.039396 0.865571 0.541845 -2.491569 11.868491 -29.100917 6.751160 0.284323 6.901504 -13.699371 2.429964 39.289439 13.582474 26.500649 -34.390627 0.000000 0.000000 0.000000 3.660952 1.749428 -12.032346 0.761605 -4.037928 75.928361 -7.528149 -17.751241 -1.172274 0.000000 0.000000 0.000000 0.162676 -0.273358 6.359057 -1.740691 1.414437 -12.275018 -0.082455 -0.412969 17.491212 5.659166 -4.437927 -2.850792 0.000000 0.000000 0.000000 3.229467 -0.052342 0.481399 -65.779451 8.242221 -15.817973 -32.590398 -42.582176 14.580015 0.000000 0.000000 0.000000 -0.671562 -11.887723 -4.195108 68.168327 -8.995133 -11.902971 22.423708 44.135480 12.631507 0.000000 0.000000 0.000000 
0.042168 0.857153 0.571439 -3.826189 14.177502 -27.424375 4.136400 0.116451 1.330190 -13.533254 1.975044 34.608739 12.858477 20.804707 -28.993087 0.000000 0.000000 0.000000 2.820992 2.460691 -23.131416 1.423632 -4.973521 67.974886 -8.061224 -19.055947 0.046993 0.000000 0.000000 0.000000 -1.282587 -0.546376 10.350372 1.835479 -0.040467 -10.312604 -0.887756 -2.568972 15.293782 5.074106 -3.518360 -5.234443 0.000000 0.000000 0.000000 -2.890538 0.987453 -0.706366 -62.490660 -0.007532 -9.880921 -27.939657 -44.912029 13.301808 0.000000 0.000000 0.000000 4.918332 -8.226527 -3.242133 61.294460 -1.008291 -7.260158 14.064050 42.535633 8.335570 0.000000 0.000000 0.000000 
0.045065 0.846476 0.602430 -4.456287 14.069071 -25.444046 2.660250 -0.165779 -3.136045 -13.544394 1.887736 39.264807 12.244323 19.282413 -28.879548 0.000000 0.000000 0.000000 1.654387 2.429617 -29.414748 3.853895 -5.430566 59.466336 -7.915709 -18.427238 4.098962 0.000000 0.000000 0.000000 0.062288 -0.774600 13.516848 0.606697 0.515338 -11.251164 1.888248 -3.723116 17.165475 3.128844 -1.863874 -6.192202 0.000000 0.000000 0.000000 -5.060549 -2.053688 0.158640 -61.195080 -2.053121 -8.564903 -27.300129 -49.133372 14.809428 0.000000 0.000000 0.000000 4.903994 -9.317922 -3.684085 60.186397 1.354287 -6.355176 19.570818 42.593216 10.486137 0.000000 0.000000 0.000000 
0.047591 0.839350 0.635411 -5.185038 15.920535 -21.485293 3.497188 -0.476205 -7.782377 -16.374654 2.604519 46.899573 11.944663 19.800644 -26.627141 0.000000 0.000000 0.000000 1.332969 2.224035 -33.752209 3.432964 -4.788066 54.295665 -7.594955 -17.588788 5.847687 0.000000 0.000000 0.000000 0.884674 -0.697491 11.896071 3.151122 -0.725192 -7.962196 -0.007382 -4.946626 13.878106 2.451908 -0.870550 -9.052036 0.000000 0.000000 0.000000 -5.021736 -0.197434 -0.555530 -60.260145 -3.649118 -7.140918 -30.706127 -50.126870 16.473555 0.000000 0.000000 0.000000 3.339686 -8.303319 -3.187307 62.698921 1.440590 -6.006107 18.216942 40.895808 9.283846 0.000000 0.000000 0.000000 
0.049059 0.841023 0.668721 -4.629914 15.568379 -18.661718 6.018839 -0.586317 -11.809024 -20.336580 4.924138 55.545928 11.479495 21.423918 -19.752516 0.000000 0.000000 0.000000 1.248892 2.235453 -33.855686 4.020249 -4.558272 50.920410 -8.039582 -18.507299 5.429920 0.000000 0.000000 0.000000 0.946274 -0.686827 11.502643 3.604960 -0.799030 -9.776453 -1.101156 -2.957295 14.289921 4.890017 -2.712622 -7.867154 0.000000 0.000000 0.000000 -0.614175 -2.221831 0.635620 -63.173915 -1.067434 -9.348809 -37.852408 -53.049708 20.919623 0.000000 0.000000 0.000000 2.122695 -9.547877 -3.578559 65.924196 0.770606 -6.003820 17.931787 41.206717 9.552531 0.000000 0.000000 0.000000 
